<?xml version="1.0" encoding="UTF-8"?>
<svg id="uuid-e14750d0-3fa6-40f3-82b0-300f95f3c319" data-name="Layer 2" xmlns="http://www.w3.org/2000/svg" width="93.6" height="67.1" viewBox="0 0 93.6 67.1">
  <defs>
    <style>
      .uuid-f800a5c0-0644-4222-a03a-f5d59b6f7506 {
        fill: #033362;
      }
    </style>
  </defs>
  <g id="uuid-4bc88619-d504-4bdd-9d6e-a111c2e8dad6" data-name="Capa 1">
    <g>
      <path class="uuid-f800a5c0-0644-4222-a03a-f5d59b6f7506" d="M21.8,48.4c-5.2,0-9.4,4.2-9.4,9.4s4.2,9.4,9.4,9.4,9.4-4.2,9.4-9.4c0-5.2-4.2-9.4-9.4-9.4Zm0,15.6c-3.4,0-6.2-2.8-6.2-6.2s2.8-6.2,6.2-6.2,6.2,2.8,6.2,6.2c0,3.4-2.8,6.2-6.2,6.2Z"/>
      <path class="uuid-f800a5c0-0644-4222-a03a-f5d59b6f7506" d="M74.9,48.4c-5.2,0-9.4,4.2-9.4,9.4s4.2,9.4,9.4,9.4,9.4-4.2,9.4-9.4c0-5.2-4.2-9.4-9.4-9.4Zm0,15.6c-3.4,0-6.2-2.8-6.2-6.2s2.8-6.2,6.2-6.2,6.2,2.8,6.2,6.2-2.8,6.2-6.2,6.2Z"/>
      <path class="uuid-f800a5c0-0644-4222-a03a-f5d59b6f7506" d="M93.3,39.7l-14-21.8c-.3-.4-.8-.7-1.3-.7h-17.2c-.9,0-1.6,.7-1.6,1.6V57.7c0,.9,.7,1.6,1.6,1.6h6.2v-3.1h-4.7V20.3h14.7l13.3,20.7v15.1h-7.8v3.1h9.4c.9,0,1.6-.7,1.6-1.6v-17.2c0-.3,0-.6-.2-.8Z"/>
      <path class="uuid-f800a5c0-0644-4222-a03a-f5d59b6f7506" d="M68.6,37.4v-10.9h12.5v-3.1h-14c-.9,0-1.6,.7-1.6,1.6v14c0,.9,.7,1.6,1.6,1.6h23.4v-3.1h-21.8Z"/>
      <path class="uuid-f800a5c0-0644-4222-a03a-f5d59b6f7506" d="M60.8,6.2H1.6c-.9,0-1.6,.7-1.6,1.6V57.7c0,.9,.7,1.6,1.6,1.6H14v-3.1H3.1V9.4H59.3V56.1H29.6v3.1h31.2c.9,0,1.6-.7,1.6-1.6V7.8c0-.9-.7-1.6-1.6-1.6Z"/>
      <rect class="uuid-f800a5c0-0644-4222-a03a-f5d59b6f7506" x="1.6" y="49.9" width="9.4" height="3.1"/>
      <rect class="uuid-f800a5c0-0644-4222-a03a-f5d59b6f7506" x="32.8" y="49.9" width="26.5" height="3.1"/>
      <rect class="uuid-f800a5c0-0644-4222-a03a-f5d59b6f7506" x="85.8" y="49.9" width="6.2" height="3.1"/>
      <rect class="uuid-f800a5c0-0644-4222-a03a-f5d59b6f7506" x="6.2" y="12.5" width="54.6" height="3.1"/>
      <rect class="uuid-f800a5c0-0644-4222-a03a-f5d59b6f7506" x="20.3" y="56.1" width="3.1" height="3.1"/>
      <rect class="uuid-f800a5c0-0644-4222-a03a-f5d59b6f7506" x="73.3" y="56.1" width="3.1" height="3.1"/>
      <rect class="uuid-f800a5c0-0644-4222-a03a-f5d59b6f7506" x="6.2" width="21.8" height="3.1"/>
      <rect class="uuid-f800a5c0-0644-4222-a03a-f5d59b6f7506" width="3.1" height="3.1"/>
    </g>
  </g>
</svg>