<?xml version="1.0" encoding="UTF-8"?>
<svg id="uuid-9762acd6-d7e2-44f7-a029-9399f214353a" data-name="Layer 2" xmlns="http://www.w3.org/2000/svg" width="52.9" height="69.5" viewBox="0 0 52.9 69.5">
  <defs>
    <style>
      .uuid-7d91273a-0e4b-4aab-8958-0fee54cfe22b {
        fill: #033362;
      }
    </style>
  </defs>
  <g id="uuid-697f44f3-3b2f-4ae2-ba49-9e85e44afc22" data-name="Capa 1">
    <g>
      <path class="uuid-7d91273a-0e4b-4aab-8958-0fee54cfe22b" d="M49.5,69.5H3c-.6,0-1.1-.5-1.2-1.1C-.6,45.8-.6,23.2,1.8,1.1c0-.6,.6-1.1,1.2-1.1H49.5c.6,0,1.1,.4,1.2,1,3,21.5,3,44.2,0,67.5,0,.6-.6,1-1.2,1Zm-45.5-2.4H48.5c2.8-22.3,2.8-44.1,0-64.8H4c-2.2,21.3-2.2,43.1,0,64.8Z"/>
      <path class="uuid-7d91273a-0e4b-4aab-8958-0fee54cfe22b" d="M26.8,51.8c-9.7,0-17.7-7.9-17.7-17.7s7.9-17.7,17.7-17.7,17.7,7.9,17.7,17.7-7.9,17.7-17.7,17.7Zm0-33c-8.4,0-15.3,6.9-15.3,15.3s6.9,15.3,15.3,15.3,15.3-6.9,15.3-15.3-6.9-15.3-15.3-15.3Z"/>
      <path class="uuid-7d91273a-0e4b-4aab-8958-0fee54cfe22b" d="M45,9.4h-4.7c-.7,0-1.2-.5-1.2-1.2s.5-1.2,1.2-1.2h4.7c.7,0,1.2,.5,1.2,1.2s-.5,1.2-1.2,1.2Z"/>
      <path class="uuid-7d91273a-0e4b-4aab-8958-0fee54cfe22b" d="M36.7,9.4H3.7c-.7,0-1.2-.5-1.2-1.2s.5-1.2,1.2-1.2H36.7c.7,0,1.2,.5,1.2,1.2s-.5,1.2-1.2,1.2Z"/>
      <path class="uuid-7d91273a-0e4b-4aab-8958-0fee54cfe22b" d="M45,61.3h-4.7c-.7,0-1.2-.5-1.2-1.2s.5-1.2,1.2-1.2h4.7c.7,0,1.2,.5,1.2,1.2s-.5,1.2-1.2,1.2Z"/>
      <path class="uuid-7d91273a-0e4b-4aab-8958-0fee54cfe22b" d="M36.7,61.3H3.7c-.7,0-1.2-.5-1.2-1.2s.5-1.2,1.2-1.2H36.7c.7,0,1.2,.5,1.2,1.2s-.5,1.2-1.2,1.2Z"/>
      <path class="uuid-7d91273a-0e4b-4aab-8958-0fee54cfe22b" d="M26.6,34.8c-2.6,0-4.7-2.1-4.7-4.7s3.1-7,3.7-8c.4-.7,1.6-.7,2,0,.6,1,3.7,5.8,3.7,8s-2.1,4.7-4.7,4.7Zm0-9.8c-1.2,2.1-2.3,4.3-2.3,5.1,0,1.3,1,2.3,2.3,2.3s2.3-1,2.3-2.3c0-.8-1.1-3-2.3-5.1Z"/>
      <path class="uuid-7d91273a-0e4b-4aab-8958-0fee54cfe22b" d="M26.1,51.8c-.4,0-.9-.3-1.1-.7l-4.7-9.6c-.3-.6,0-1.3,.5-1.6,.6-.3,1.3,0,1.6,.5l2.4,5v-11.4c0-.7,.5-1.2,1.2-1.2s1.2,.5,1.2,1.2v16.5c0,.5-.4,1-.9,1.1s-.2,0-.3,0Z"/>
      <path class="uuid-7d91273a-0e4b-4aab-8958-0fee54cfe22b" d="M26.1,51.8c-.2,0-.4,0-.5-.1-.6-.3-.8-1-.5-1.6l5.2-10.2c.3-.6,1-.8,1.6-.5,.6,.3,.8,1,.5,1.6l-5.2,10.2c-.2,.4-.6,.6-1.1,.6Z"/>
      <path class="uuid-7d91273a-0e4b-4aab-8958-0fee54cfe22b" d="M20,42.2c-.3,0-.6,0-.9,0-1.2-.2-2.3-.9-3-2-1.2-1.8-1.4-7.6-1.4-8.7,0-.4,.2-.8,.5-1,.3-.2,.8-.3,1.1-.1,1,.5,6.3,2.8,7.5,4.6,1.4,2.1,.9,5-1.3,6.5-.8,.5-1.7,.8-2.6,.8Zm-1.9-3.4c.3,.5,.9,.9,1.5,1,.6,.1,1.2,0,1.7-.3,1.1-.7,1.3-2.1,.6-3.2-.4-.6-2.6-1.9-4.8-2.9,.2,2.4,.5,4.9,.9,5.5Z"/>
      <path class="uuid-7d91273a-0e4b-4aab-8958-0fee54cfe22b" d="M33.3,42.2c-.9,0-1.8-.3-2.6-.8-1-.7-1.7-1.8-2-3s0-2.5,.7-3.5c1.2-1.8,6.5-4.1,7.5-4.6,.4-.2,.8-.1,1.1,.1,.3,.2,.5,.6,.5,1,0,1.1-.2,6.9-1.4,8.7-.7,1-1.8,1.7-3,2-.3,0-.6,0-.9,0Zm2.9-8.9c-2.2,1.1-4.3,2.3-4.8,2.9-.7,1.1-.4,2.5,.6,3.2,.5,.3,1.1,.5,1.7,.4,.6-.1,1.1-.5,1.5-1,.4-.6,.8-3.1,.9-5.5Z"/>
    </g>
  </g>
</svg>