<?xml version="1.0" encoding="UTF-8"?>
<svg id="uuid-e107e51d-bb15-40ba-b8b7-3cb2fc4a26c6" data-name="Layer 2" xmlns="http://www.w3.org/2000/svg" width="67.4" height="67.4" viewBox="0 0 67.4 67.4">
  <defs>
    <style>
      .uuid-914bf8bc-8d0e-4466-ba8a-0afab4bcc864 {
        fill: #033362;
      }
    </style>
  </defs>
  <g id="uuid-9d412b91-11d4-4285-9bcb-d1730c196592" data-name="Capa 1">
    <g>
      <path class="uuid-914bf8bc-8d0e-4466-ba8a-0afab4bcc864" d="M67.3,14.5c0-.1,0-.3,0-.4s0-.3-.2-.4c0,0,0-.1,0-.2L58.6,.9c-.4-.6-1-.9-1.8-.9H10.5c-.7,0-1.4,.4-1.8,.9L.4,13.6c0,0,0,.1,0,.2,0,.1-.1,.3-.2,.4,0,.1,0,.3,0,.4,0,0,0,.1,0,.2V63.1c0,2.3,1.9,4.2,4.2,4.2H63.1c2.3,0,4.2-1.9,4.2-4.2V14.7c0,0,0-.1,0-.2Zm-11.6-10.3l5.6,8.4h-19.5l-1.4-8.4h15.3Zm-24.5,0h4.9l1.4,8.4h-7.7l1.4-8.4Zm-1.8,12.6h8.4v7.6l-3.5-1.2c-.4-.1-.9-.1-1.3,0l-3.5,1.2v-7.6ZM11.7,4.2h15.3l-1.4,8.4H6L11.7,4.2Zm51.5,61v-2.1H4.2V16.8H25.3v10.5c0,.7,.3,1.3,.9,1.7,.5,.4,1.3,.5,1.9,.3l5.6-1.9,5.6,1.9c.2,0,.4,.1,.7,.1,.4,0,.9-.1,1.2-.4,.6-.4,.9-1,.9-1.7v-10.5h21V63.1h0v2.1Z"/>
      <path class="uuid-914bf8bc-8d0e-4466-ba8a-0afab4bcc864" d="M23.2,46.3H10.5c-1.2,0-2.1,.9-2.1,2.1s.9,2.1,2.1,2.1h12.6c1.2,0,2.1-.9,2.1-2.1s-.9-2.1-2.1-2.1Z"/>
      <path class="uuid-914bf8bc-8d0e-4466-ba8a-0afab4bcc864" d="M16.8,54.7h-6.3c-1.2,0-2.1,.9-2.1,2.1s.9,2.1,2.1,2.1h6.3c1.2,0,2.1-.9,2.1-2.1s-.9-2.1-2.1-2.1Z"/>
    </g>
  </g>
</svg>