<?xml version="1.0" encoding="UTF-8"?>
<svg id="uuid-be511109-69ca-44a8-bd46-11018cee764a" data-name="Layer 2" xmlns="http://www.w3.org/2000/svg" width="71.9" height="74.8" viewBox="0 0 71.9 74.8">
  <defs>
    <style>
      .uuid-d977a71c-04c9-42bd-b481-060a3561c71c {
        fill: #033362;
      }
    </style>
  </defs>
  <g id="uuid-174bdc0d-c28b-46c9-9915-de393d756338" data-name="Capa 1">
    <g id="uuid-9412531c-c506-4dc7-99b0-185d1285ed5f" data-name="Outline">
      <g>
        <path class="uuid-d977a71c-04c9-42bd-b481-060a3561c71c" d="M71.7,34.9c-.6-2-2.7-3.1-4.7-2.5l-33.4,10c-.2,0-.4,.2-.5,.3l-4.1,3.8c-.5,.5-.5,1.3,0,1.8,.2,.2,.4,.3,.7,.4l5.5,1c.2,0,.4,0,.6,0l27.1-8.1v2.6l-8.5,2.6,.7,2.4,9.6-2.9c.5-.2,.9-.7,.9-1.3l-.2-4.2,3.8-1.2c2-.6,3.1-2.7,2.5-4.7h0Zm-36.4,12.2l-2.7-.5,2-1.9,5.7-1.7,.7,2.4-5.7,1.7Zm8.1-2.4l-.7-2.4,20-6v2.6l-19.3,5.8Zm25.8-8.1c-.2,.3-.4,.5-.7,.6l-3.2,1v-2.6l2.5-.8c.7-.2,1.4,.2,1.6,.8,0,.3,0,.7,0,.9Z"/>
        <path class="uuid-d977a71c-04c9-42bd-b481-060a3561c71c" d="M46.1,52.4H24.9v-18.7c0-.7-.6-1.2-1.2-1.2H1.2c-.7,0-1.2,.6-1.2,1.2v39.9c0,.7,.6,1.2,1.2,1.2H46.1c.7,0,1.2-.6,1.2-1.2v-19.9c0-.7-.6-1.2-1.2-1.2Zm-13.7,2.5h5v5h-5v-5ZM10,34.9h5v5h-5v-5Zm-7.5,0H7.5v6.2c0,.7,.6,1.2,1.2,1.2h7.5c.7,0,1.2-.6,1.2-1.2v-6.2h5v17.5H2.5v-17.5Zm7.5,19.9h5v5h-5v-5Zm-7.5,0H7.5v6.2c0,.7,.6,1.2,1.2,1.2h7.5c.7,0,1.2-.6,1.2-1.2v-6.2h5v17.5H2.5v-17.5Zm42.4,17.5H24.9v-17.5h5v6.2c0,.7,.6,1.2,1.2,1.2h7.5c.7,0,1.2-.6,1.2-1.2v-6.2h5v17.5Z"/>
        <path class="uuid-d977a71c-04c9-42bd-b481-060a3561c71c" d="M39.9,67.3h2.5v2.5h-2.5v-2.5Z"/>
        <path class="uuid-d977a71c-04c9-42bd-b481-060a3561c71c" d="M17.5,67.3h2.5v2.5h-2.5v-2.5Z"/>
        <path class="uuid-d977a71c-04c9-42bd-b481-060a3561c71c" d="M17.5,47.4h2.5v2.5h-2.5v-2.5Z"/>
        <path class="uuid-d977a71c-04c9-42bd-b481-060a3561c71c" d="M19.9,10c0-1.4,1.1-2.5,2.5-2.5h7.5v2.5h-6.2c-.7,0-1.2,.6-1.2,1.2V29.9h2.5V12.5h29.9v19.9h2.5V11.2c0-.7-.6-1.2-1.2-1.2h-6.2v-2.5h7.5c1.4,0,2.5,1.1,2.5,2.5V31.2h2.5V10c0-2.8-2.2-5-5-5h-12.1l.9-3.4c.2-.7-.2-1.3-.9-1.5,0,0-.2,0-.3,0h-10c-.7,0-1.2,.6-1.2,1.2,0,.1,0,.2,0,.3l.9,3.4h-12.1c-2.8,0-5,2.2-5,5V29.9h2.5V10Zm12.5-2.5h3.7c.7,0,1.2-.6,1.2-1.2,0-.1,0-.2,0-.3l-.9-3.4h6.8l-.9,3.4c-.2,.7,.2,1.3,.9,1.5,0,0,.2,0,.3,0h3.7v2.5h-15v-2.5Z"/>
        <path class="uuid-d977a71c-04c9-42bd-b481-060a3561c71c" d="M59.8,61.1c0,1.4-1.1,2.5-2.5,2.5h-7.5v2.5h7.5c2.8,0,5-2.2,5-5v-11.2h-2.5v11.2Z"/>
        <path class="uuid-d977a71c-04c9-42bd-b481-060a3561c71c" d="M57.3,59.8v-8.7h-2.5v7.5h-5v2.5h6.2c.7,0,1.2-.6,1.2-1.2Z"/>
        <path class="uuid-d977a71c-04c9-42bd-b481-060a3561c71c" d="M34.9,16.2c0-.7-.6-1.2-1.2-1.2h-5c-.7,0-1.2,.6-1.2,1.2v5c0,.7,.6,1.2,1.2,1.2h5c.7,0,1.2-.6,1.2-1.2v-5Zm-2.5,3.7h-2.5v-2.5h2.5v2.5Z"/>
        <path class="uuid-d977a71c-04c9-42bd-b481-060a3561c71c" d="M33.7,26.2h-5c-.7,0-1.2,.6-1.2,1.2v5c0,.7,.6,1.2,1.2,1.2h5c.7,0,1.2-.6,1.2-1.2v-5c0-.7-.6-1.2-1.2-1.2Zm-1.2,5h-2.5v-2.5h2.5v2.5Z"/>
        <path class="uuid-d977a71c-04c9-42bd-b481-060a3561c71c" d="M37.4,15h2.5v2.5h-2.5v-2.5Z"/>
        <path class="uuid-d977a71c-04c9-42bd-b481-060a3561c71c" d="M37.4,19.9h15v2.5h-15v-2.5Z"/>
        <path class="uuid-d977a71c-04c9-42bd-b481-060a3561c71c" d="M42.4,15h10v2.5h-10v-2.5Z"/>
        <path class="uuid-d977a71c-04c9-42bd-b481-060a3561c71c" d="M37.4,26.2h2.5v2.5h-2.5v-2.5Z"/>
        <path class="uuid-d977a71c-04c9-42bd-b481-060a3561c71c" d="M37.4,31.2h15v2.5h-15v-2.5Z"/>
        <path class="uuid-d977a71c-04c9-42bd-b481-060a3561c71c" d="M42.4,26.2h10v2.5h-10v-2.5Z"/>
      </g>
    </g>
  </g>
</svg>