<?xml version="1.0" encoding="UTF-8"?>
<svg id="uuid-90fcc01b-b8c5-4878-b78c-df648b62acb7" data-name="Layer 2" xmlns="http://www.w3.org/2000/svg" width="70.6" height="67.8" viewBox="0 0 70.6 67.8">
  <defs>
    <style>
      .uuid-b47e9911-f4b2-4ba7-ac5b-9642b7ea6ee7 {
        fill: #fff;
      }
    </style>
  </defs>
  <g id="uuid-230198cb-8097-40fa-a174-59e8e699a2f8" data-name="Capa 1">
    <g>
      <path class="uuid-b47e9911-f4b2-4ba7-ac5b-9642b7ea6ee7" d="M61.4,9.7L0,39.4s.2,4.3,2,7.9l18.1,.3-3.9,16.8s4.8,2.9,7.2,3.4L66,15.7s-2-4.2-4.5-5.9ZM26,53.7l2.9-13.3H14.1L51.2,22.7l-25.2,31.1Z"/>
      <path class="uuid-b47e9911-f4b2-4ba7-ac5b-9642b7ea6ee7" d="M50.7,37.8l4.6-5.9,15.3,7.6s-.2,4.2-2,7.6l-18.2,.4,3.9,16.6s-2.4,2.4-7.3,3.6l-10.3-12.7,4.3-5.6,3.5,4.2-1.5-6.7,5.1-6.3,8.2-.2-5.6-2.7Z"/>
      <path class="uuid-b47e9911-f4b2-4ba7-ac5b-9642b7ea6ee7" d="M22.4,26.2l-6.6,3.5L5,16.5s1.9-3.8,4.9-6.2l16.8,7L29.9,.7s3.2-1.2,8.2-.3l4.3,15.8-6.2,3.4-1.5-5.3-1.4,6.7-7.2,3.7-7.6-3.1,4,4.8Z"/>
    </g>
  </g>
</svg>