<?xml version="1.0" encoding="UTF-8"?>
<svg id="Capa_3" xmlns="http://www.w3.org/2000/svg" version="1.1" viewBox="0 0 349.58 121.34">
  <!-- Generator: Adobe Illustrator 29.8.3, SVG Export Plug-In . SVG Version: 2.1.1 Build 3)  -->
  <defs>
    <style>
      .st0 {
        fill: #FFF;
      }

      .st1 {
        fill: #FFF;
      }
    </style>
  </defs>
  <g id="Capa_1">
    <g>
      <g>
        <path class="st0" d="M109.84,17.43L0,70.49s.42,7.72,3.59,14.19l32.38.55-7.03,30.04s8.54,5.24,12.95,6.06L117.97,28.04s-3.58-7.58-8.13-10.61ZM46.44,96.12l5.24-23.7-26.46.14,66.29-31.97-45.06,55.54Z"/>
        <path class="st1" d="M90.68,67.59l8.27-10.47,27.29,13.64s-.41,7.58-3.58,13.64l-32.52.69,6.89,29.77s-4.27,4.27-13.09,6.48l-18.47-22.74,7.75-10.06,6.31,7.58-2.62-11.99,9.1-11.3,14.75-.41-10.06-4.82Z"/>
        <path class="st1" d="M40.09,46.92l-11.81,6.2L8.9,29.57s3.46-6.76,8.82-11.01l29.99,12.6L53.52,1.17s5.64-2.17,14.59-.59l7.62,28.28-11.17,6.04-2.68-9.49-2.48,12.02-12.91,6.62-13.64-5.62,7.23,8.5Z"/>
      </g>
      <g>
        <g>
          <path class="st1" d="M161.92,53.97c1.89,1.89,4.79,3.46,8.37,3.46,2.32,0,3.73-.98,3.73-2.24,0-1.49-1.69-2.08-4.48-2.67-4.32-.86-10.37-1.96-10.37-8.17,0-4.4,3.73-8.21,10.45-8.21,4.2,0,7.86,1.26,10.65,3.65l-3.69,4.83c-2.2-1.81-5.07-2.71-7.39-2.71s-3.1.9-3.1,2.04c0,1.38,1.61,1.85,4.52,2.4,4.32.9,10.29,2.16,10.29,8.09,0,5.26-3.89,8.76-10.92,8.76-5.3,0-9-1.65-11.63-4.17l3.58-5.07Z"/>
          <path class="st1" d="M196.74,36.09c8.02,0,13.99,5.58,13.99,13.56s-5.97,13.56-13.99,13.56-14.03-5.58-14.03-13.56,6.01-13.56,14.03-13.56ZM196.74,42.07c-4.36,0-7.15,3.3-7.15,7.58s2.79,7.58,7.15,7.58,7.11-3.34,7.11-7.58-2.79-7.58-7.11-7.58Z"/>
          <path class="st1" d="M228.76,62.73l-4.4-8.88h-3.46v8.88h-6.76v-26.21h13.12c5.82,0,9.12,3.85,9.12,8.72,0,4.56-2.79,6.99-5.23,7.86l5.34,9.63h-7.74ZM226.24,42.22h-5.34v5.89h5.34c1.77,0,3.26-1.14,3.26-2.95s-1.49-2.95-3.26-2.95Z"/>
          <path class="st1" d="M240.11,62.73v-26.21h6.76v26.21h-6.76Z"/>
          <path class="st1" d="M269.7,62.73l-1.34-3.97h-10.88l-1.34,3.97h-7.35l9.86-26.21h8.49l9.9,26.21h-7.35ZM262.9,42.42l-3.65,10.65h7.35l-3.69-10.65Z"/>
          <path class="st1" d="M289.62,55.7c.94.79,2.2,1.53,3.77,1.53,2.12,0,3.5-1.38,3.5-3.58v-17.13h6.76v17.21c0,6.48-3.93,9.47-9.67,9.47-2.63,0-5.23-.63-7.19-2.36l2.83-5.15Z"/>
          <path class="st1" d="M331.35,62.73v-17.68l-6.64,17.68h-2.99l-6.6-17.68v17.68h-6.76v-26.21h9.39l5.46,14.85,5.5-14.85h9.39v26.21h-6.76Z"/>
          <path class="st1" d="M342.82,62.73v-26.21h6.76v26.21h-6.76Z"/>
        </g>
        <g>
          <path class="st1" d="M160.97,85.48v-12.01h1.49v10.68h5.58v1.33h-7.08Z"/>
          <path class="st1" d="M187.71,73.28c3.55,0,5.96,2.67,5.96,6.21s-2.41,6.21-5.96,6.21-5.96-2.67-5.96-6.21,2.39-6.21,5.96-6.21ZM187.71,74.61c-2.7,0-4.41,2.07-4.41,4.88s1.71,4.88,4.41,4.88,4.41-2.09,4.41-4.88-1.73-4.88-4.41-4.88Z"/>
          <path class="st1" d="M214.39,73.28c2.12,0,3.6.94,4.66,2.25l-1.19.74c-.76-.97-2.04-1.66-3.48-1.66-2.63,0-4.63,2.02-4.63,4.88s2,4.9,4.63,4.9c1.44,0,2.63-.7,3.22-1.3v-2.45h-4.12v-1.33h5.62v4.34c-1.12,1.24-2.75,2.07-4.72,2.07-3.42,0-6.18-2.5-6.18-6.23s2.75-6.21,6.18-6.21Z"/>
          <path class="st1" d="M234.23,85.48v-12.01h1.49v12.01h-1.49Z"/>
          <path class="st1" d="M251.39,82.66c.79.88,2.09,1.71,3.78,1.71,2.14,0,2.83-1.15,2.83-2.07,0-1.44-1.46-1.84-3.04-2.27-1.93-.5-4.07-1.04-4.07-3.4,0-1.98,1.76-3.33,4.12-3.33,1.84,0,3.26.61,4.27,1.67l-.9,1.1c-.9-.99-2.16-1.44-3.48-1.44-1.44,0-2.47.77-2.47,1.91,0,1.21,1.39,1.57,2.92,1.98,1.96.52,4.2,1.13,4.2,3.66,0,1.75-1.19,3.53-4.43,3.53-2.09,0-3.62-.79-4.61-1.91l.88-1.13Z"/>
          <path class="st1" d="M277.34,85.48v-10.68h-3.8v-1.33h9.11v1.33h-3.82v10.68h-1.5Z"/>
          <path class="st1" d="M297.33,85.48v-12.01h1.49v12.01h-1.49Z"/>
          <path class="st1" d="M313.84,79.49c0-3.69,2.72-6.21,6.12-6.21,2.18,0,3.66,1.03,4.61,2.38l-1.26.7c-.68-1.01-1.93-1.75-3.35-1.75-2.58,0-4.57,2.02-4.57,4.88s2,4.88,4.57,4.88c1.42,0,2.67-.72,3.35-1.75l1.28.7c-1.01,1.37-2.45,2.38-4.63,2.38-3.4,0-6.12-2.52-6.12-6.21Z"/>
          <path class="st1" d="M347.76,85.48l-1.06-2.67h-6.09l-1.06,2.67h-1.66l4.83-12.01h1.85l4.84,12.01h-1.66ZM343.65,74.81l-2.61,6.68h5.2l-2.59-6.68Z"/>
        </g>
      </g>
    </g>
  </g>
</svg>