<?xml version="1.0" encoding="UTF-8"?>
<svg id="Capa_1" xmlns="http://www.w3.org/2000/svg" version="1.1" viewBox="0 0 528.9 242.7">
  <!-- Generator: Adobe Illustrator 30.2.1, SVG Export Plug-In . SVG Version: 2.1.1 Build 1)  -->
  <defs>
    <style>
      .st0 {
        fill: #FFFFFF;
      }

      .st1 {
        fill: #FFFFFF;
      }
    </style>
  </defs>
  <g>
    <path class="st0" d="M170.2,70.1l-130,62.8s.5,9.1,4.2,16.8l38.3.7-8.3,35.6s10.1,6.2,15.3,7.2l90.1-110.5s-4.2-9-9.6-12.6ZM95.2,163.3l6.2-28.1-31.3.2,78.5-37.9-53.4,65.8Z"/>
    <path class="st1" d="M147.5,129.5l9.8-12.4,32.3,16.2s-.5,9-4.2,16.2l-38.5.8,8.2,35.2s-5.1,5.1-15.5,7.7l-21.9-26.9,9.2-11.9,7.5,9-3.1-14.2,10.8-13.4,17.5-.5-11.9-5.7Z"/>
    <path class="st1" d="M87.6,105.1l-14,7.3-22.9-27.9s4.1-8,10.4-13l35.5,14.9,6.9-35.5s6.7-2.6,17.3-.7l9,33.5-13.2,7.2-3.2-11.2-2.9,14.2-15.3,7.8-16.1-6.7,8.6,10.1Z"/>
  </g>
  <g>
    <g>
      <path class="st1" d="M232.6,111.7c2.6,2.6,6.5,4.7,11.4,4.7s5.1-1.3,5.1-3.1-2.3-2.8-6.1-3.6c-5.9-1.2-14.2-2.7-14.2-11.2s5.1-11.2,14.3-11.2,10.7,1.7,14.5,5l-5,6.6c-3-2.5-6.9-3.7-10.1-3.7s-4.2,1.2-4.2,2.8,2.2,2.5,6.2,3.3c5.9,1.2,14.1,2.9,14.1,11s-5.3,12-14.9,12-12.3-2.3-15.9-5.7l4.9-6.9Z"/>
      <path class="st1" d="M280.1,87.3c10.9,0,19.1,7.6,19.1,18.5s-8.2,18.5-19.1,18.5-19.1-7.6-19.1-18.5,8.2-18.5,19.1-18.5ZM280.1,95.5c-6,0-9.8,4.5-9.8,10.4s3.8,10.4,9.8,10.4,9.7-4.6,9.7-10.4-3.8-10.4-9.7-10.4Z"/>
      <path class="st1" d="M323.8,123.7l-6-12.1h-4.7v12.1h-9.2v-35.8h17.9c7.9,0,12.4,5.3,12.4,11.9s-3.8,9.5-7.1,10.7l7.3,13.1h-10.6ZM320.4,95.7h-7.3v8h7.3c2.4,0,4.5-1.6,4.5-4s-2-4-4.5-4Z"/>
      <path class="st1" d="M339.3,123.7v-35.8h9.2v35.8h-9.2Z"/>
      <path class="st1" d="M379.7,123.7l-1.8-5.4h-14.9l-1.8,5.4h-10l13.5-35.8h11.6l13.5,35.8h-10ZM370.4,96l-5,14.5h10l-5-14.5Z"/>
      <path class="st1" d="M406.9,114.1c1.3,1.1,3,2.1,5.1,2.1s4.8-1.9,4.8-4.9v-23.4h9.2v23.5c0,8.8-5.4,12.9-13.2,12.9s-7.1-.9-9.8-3.2l3.9-7Z"/>
      <path class="st1" d="M463.8,123.7v-24.1l-9.1,24.1h-4.1l-9-24.1v24.1h-9.2v-35.8h12.8l7.5,20.3,7.5-20.3h12.8v35.8h-9.2Z"/>
      <path class="st1" d="M479.5,123.7v-35.8h9.2v35.8h-9.2Z"/>
    </g>
    <g>
      <path class="st1" d="M227.7,150.7v-12.7h1.6v11.3h5.9v1.4h-7.5Z"/>
      <path class="st1" d="M242.5,137.8c3.7,0,6.3,2.8,6.3,6.6s-2.5,6.6-6.3,6.6-6.3-2.8-6.3-6.6,2.5-6.6,6.3-6.6ZM242.5,139.2c-2.8,0-4.7,2.2-4.7,5.1s1.8,5.1,4.7,5.1,4.7-2.2,4.7-5.1-1.8-5.1-4.7-5.1Z"/>
      <path class="st1" d="M257.3,137.8c2.2,0,3.8,1,4.9,2.4l-1.3.8c-.8-1-2.1-1.7-3.7-1.7-2.8,0-4.9,2.1-4.9,5.1s2.1,5.2,4.9,5.2,2.8-.7,3.4-1.4v-2.6h-4.4v-1.4h5.9v4.6c-1.2,1.3-2.9,2.2-5,2.2-3.6,0-6.5-2.6-6.5-6.6s2.9-6.6,6.5-6.6Z"/>
      <path class="st1" d="M264.8,150.7v-12.7h1.6v12.7h-1.6Z"/>
      <path class="st1" d="M269.5,147.7c.8.9,2.2,1.8,4,1.8s3-1.2,3-2.2c0-1.5-1.5-1.9-3.2-2.4-2-.5-4.3-1.1-4.3-3.6s1.9-3.5,4.4-3.5,3.4.6,4.5,1.8l-1,1.2c-.9-1-2.3-1.5-3.7-1.5s-2.6.8-2.6,2,1.5,1.7,3.1,2.1c2.1.6,4.4,1.2,4.4,3.9s-1.3,3.7-4.7,3.7-3.8-.8-4.9-2l.9-1.2Z"/>
      <path class="st1" d="M283.5,150.7v-11.3h-4v-1.4h9.6v1.4h-4v11.3h-1.6Z"/>
      <path class="st1" d="M291.2,150.7v-12.7h1.6v12.7h-1.6Z"/>
      <path class="st1" d="M295.2,144.4c0-3.9,2.9-6.6,6.5-6.6s3.9,1.1,4.9,2.5l-1.3.7c-.7-1.1-2-1.8-3.5-1.8-2.7,0-4.8,2.1-4.8,5.1s2.1,5.1,4.8,5.1,2.8-.8,3.5-1.8l1.3.7c-1.1,1.4-2.6,2.5-4.9,2.5-3.6,0-6.5-2.7-6.5-6.6Z"/>
      <path class="st1" d="M317.6,150.7l-1.1-2.8h-6.4l-1.1,2.8h-1.7l5.1-12.7h2l5.1,12.7h-1.7ZM313.3,139.4l-2.8,7h5.5l-2.7-7Z"/>
      <path class="st1" d="M329.6,150.7v-5.4l-5-7.3h1.8l3.9,5.9,3.9-5.9h1.8l-5,7.3v5.4h-1.6Z"/>
      <path class="st1" d="M342.7,150.7v-12.7h4.3c3.9,0,6.5,2.8,6.5,6.3s-2.6,6.3-6.5,6.3h-4.3ZM344.3,149.3h2.8c3.1,0,4.9-2.2,4.9-4.9s-1.7-4.9-4.9-4.9h-2.8v9.9Z"/>
      <path class="st1" d="M356,150.7v-12.7h1.6v12.7h-1.6Z"/>
      <path class="st1" d="M360.7,147.7c.8.9,2.2,1.8,4,1.8s3-1.2,3-2.2c0-1.5-1.5-1.9-3.2-2.4-2-.5-4.3-1.1-4.3-3.6s1.9-3.5,4.4-3.5,3.4.6,4.5,1.8l-1,1.2c-.9-1-2.3-1.5-3.7-1.5s-2.6.8-2.6,2,1.5,1.7,3.1,2.1c2.1.6,4.4,1.2,4.4,3.9s-1.3,3.7-4.7,3.7-3.8-.8-4.9-2l.9-1.2Z"/>
      <path class="st1" d="M374.7,150.7v-11.3h-4v-1.4h9.6v1.4h-4v11.3h-1.6Z"/>
      <path class="st1" d="M389.7,150.7l-3.2-5h-2.5v5h-1.6v-12.7h5.1c2.3,0,4,1.5,4,3.8s-1.6,3.5-3.3,3.7l3.4,5.2h-1.9ZM387.3,139.4h-3.3v4.8h3.3c1.5,0,2.5-1,2.5-2.4s-1-2.4-2.5-2.4Z"/>
      <path class="st1" d="M394,150.7v-12.7h1.6v12.7h-1.6Z"/>
      <path class="st1" d="M398.5,150.7v-12.7h5.6c2.2,0,3.6,1.3,3.6,3.2s-1.1,2.7-2.2,2.9c1.3.2,2.5,1.6,2.5,3.1s-1.3,3.4-3.7,3.4h-5.8ZM400.1,143.5h3.8c1.4,0,2.2-.9,2.2-2s-.8-2.1-2.2-2.1h-3.8v4.1ZM400.1,149.3h3.9c1.5,0,2.4-.8,2.4-2.2s-.8-2.2-2.4-2.2h-3.9v4.4Z"/>
      <path class="st1" d="M410.5,138h1.6v7.7c0,2.3,1.3,3.8,3.6,3.8s3.6-1.5,3.6-3.8v-7.7h1.6v7.7c0,3.2-1.7,5.2-5.2,5.2s-5.2-2-5.2-5.1v-7.8Z"/>
      <path class="st1" d="M423.2,144.4c0-3.9,2.9-6.6,6.5-6.6s3.9,1.1,4.9,2.5l-1.3.7c-.7-1.1-2-1.8-3.5-1.8-2.7,0-4.8,2.1-4.8,5.1s2.1,5.1,4.8,5.1,2.8-.8,3.5-1.8l1.3.7c-1.1,1.4-2.6,2.5-4.9,2.5-3.6,0-6.5-2.7-6.5-6.6Z"/>
      <path class="st1" d="M436.6,150.7v-12.7h1.6v12.7h-1.6Z"/>
      <path class="st1" d="M446.9,137.8c3.7,0,6.3,2.8,6.3,6.6s-2.5,6.6-6.3,6.6-6.3-2.8-6.3-6.6,2.5-6.6,6.3-6.6ZM446.9,139.2c-2.8,0-4.7,2.2-4.7,5.1s1.8,5.1,4.7,5.1,4.7-2.2,4.7-5.1-1.8-5.1-4.7-5.1Z"/>
      <path class="st1" d="M464.6,150.7l-7.4-10.2v10.2h-1.6v-12.7h1.6l7.3,10v-10h1.6v12.7h-1.5Z"/>
      <path class="st1" d="M469.1,150.7v-12.7h8.3v1.4h-6.7v4.1h6.6v1.4h-6.6v4.4h6.7v1.4h-8.3Z"/>
      <path class="st1" d="M480.1,147.7c.8.9,2.2,1.8,4,1.8s3-1.2,3-2.2c0-1.5-1.5-1.9-3.2-2.4-2-.5-4.3-1.1-4.3-3.6s1.9-3.5,4.4-3.5,3.4.6,4.5,1.8l-1,1.2c-.9-1-2.3-1.5-3.7-1.5s-2.6.8-2.6,2,1.5,1.7,3.1,2.1c2.1.6,4.4,1.2,4.4,3.9s-1.3,3.7-4.7,3.7-3.8-.8-4.9-2l.9-1.2Z"/>
    </g>
  </g>
</svg>